<svg width="403" height="411" viewBox="0 0 403 411" fill="none" xmlns="http://www.w3.org/2000/svg">
<path d="M11.5113 209.603L102.629 176.115C110.666 173.161 119.604 177.059 122.909 184.958L186.739 337.548C192.22 350.648 210.78 350.648 216.261 337.548L280.091 184.959C283.396 177.059 292.334 173.161 300.371 176.115L391.489 209.603C398.28 212.099 402.551 218.842 401.905 226.049L391.465 342.565C390.882 349.071 386.403 354.569 380.149 356.455L206.12 408.94C203.107 409.849 199.893 409.849 196.88 408.94L22.8513 356.455C16.5974 354.569 12.118 349.071 11.5351 342.565L1.09455 226.049C0.448791 218.842 4.71989 212.099 11.5113 209.603Z" fill="#A2517D"/>
<path d="M11.5113 209.603L102.629 176.115C110.666 173.161 119.604 177.059 122.909 184.958L186.739 337.548C192.22 350.648 210.78 350.648 216.261 337.548L280.091 184.959C283.396 177.059 292.334 173.161 300.371 176.115L391.489 209.603C398.28 212.099 402.551 218.842 401.905 226.049L391.465 342.565C390.882 349.071 386.403 354.569 380.149 356.455L206.12 408.94C203.107 409.849 199.893 409.849 196.88 408.94L22.8513 356.455C16.5974 354.569 12.118 349.071 11.5351 342.565L1.09455 226.049C0.448791 218.842 4.71989 212.099 11.5113 209.603Z" fill="#A2517D"/>
<rect x="167" y="253.833" width="69" height="19" rx="8" fill="white"/>
<rect x="167" y="253.833" width="69" height="19" rx="8" fill="white"/>
<circle cx="202" cy="305.833" r="9" fill="#A2517D"/>
<circle cx="202" cy="305.833" r="9" fill="#A2517D"/>
<circle cx="202" cy="273.833" r="9" fill="#A2517D"/>
<circle cx="202" cy="273.833" r="9" fill="#A2517D"/>
<circle cx="202" cy="241.833" r="9" fill="#A2517D"/>
<circle cx="202" cy="241.833" r="9" fill="#A2517D"/>
<path d="M160 209.283V182.384C160 176.295 166.533 172.438 171.865 175.379L187.196 183.838C188.379 184.491 189.709 184.833 191.06 184.833H212.94C214.291 184.833 215.621 184.491 216.804 183.838L232.135 175.379C237.467 172.438 244 176.295 244 182.384V209.283C244 215.372 237.467 219.229 232.135 216.287L216.804 207.829C215.621 207.176 214.291 206.833 212.94 206.833H191.06C189.709 206.833 188.379 207.176 187.196 207.829L171.865 216.287C166.533 219.229 160 215.372 160 209.283Z" fill="#A2517D"/>
<path d="M160 209.283V182.384C160 176.295 166.533 172.438 171.865 175.379L187.196 183.838C188.379 184.491 189.709 184.833 191.06 184.833H212.94C214.291 184.833 215.621 184.491 216.804 183.838L232.135 175.379C237.467 172.438 244 176.295 244 182.384V209.283C244 215.372 237.467 219.229 232.135 216.287L216.804 207.829C215.621 207.176 214.291 206.833 212.94 206.833H191.06C189.709 206.833 188.379 207.176 187.196 207.829L171.865 216.287C166.533 219.229 160 215.372 160 209.283Z" fill="#A2517D"/>
<path d="M201.605 86.6667C213.111 86.6667 222.438 77.3393 222.438 65.8333C222.438 54.3274 213.111 45 201.605 45C190.099 45 180.771 54.3274 180.771 65.8333C180.771 77.3393 190.099 86.6667 201.605 86.6667Z" fill="#58317F"/>
<path d="M174.104 97.0836C175.24 98.7258 175.78 100.707 175.635 102.699C175.49 104.691 174.668 106.573 173.305 108.032C171.942 109.492 170.122 110.442 168.145 110.724C166.168 111.007 164.154 110.604 162.437 109.584C156.403 104.005 151.588 97.2383 148.296 89.7092C145.003 82.1801 143.303 74.0513 143.303 65.8336C143.303 57.6159 145.003 49.487 148.296 41.9579C151.588 34.4288 156.403 27.6623 162.437 22.0836C164.154 21.0632 166.168 20.6606 168.145 20.9428C170.122 21.2249 171.942 22.1748 173.305 23.6347C174.668 25.0946 175.49 26.9766 175.635 28.9683C175.78 30.9599 175.24 32.9414 174.104 34.5836C169.67 38.4936 166.119 43.3024 163.687 48.6903C161.255 54.0783 159.997 59.9221 159.997 65.8336C159.997 71.745 161.255 77.5889 163.687 82.9768C166.119 88.3648 169.67 93.1735 174.104 97.0836Z" fill="#58317F"/>
<path d="M259.938 65.8334C259.96 74.0575 258.266 82.1956 254.966 89.7285C251.666 97.2614 246.832 104.024 240.772 109.583C239.055 110.604 237.041 111.006 235.064 110.724C233.087 110.442 231.266 109.492 229.904 108.032C228.541 106.572 227.719 104.69 227.574 102.699C227.429 100.707 227.969 98.7256 229.105 97.0834C233.539 93.1734 237.09 88.3646 239.522 82.9767C241.954 77.5887 243.212 71.7449 243.212 65.8334C243.212 59.922 241.954 54.0781 239.522 48.6902C237.09 43.3022 233.539 38.4935 229.105 34.5834C227.981 33.9154 227.022 33.0041 226.296 31.9165C225.571 30.8288 225.099 29.5925 224.914 28.2983C224.729 27.0042 224.837 25.6851 225.229 24.438C225.621 23.1908 226.287 22.0474 227.179 21.0917C228.071 20.136 229.166 19.3923 230.383 18.9153C231.601 18.4383 232.909 18.2401 234.213 18.3352C235.517 18.4303 236.783 18.8164 237.918 19.465C239.053 20.1137 240.028 21.0084 240.772 22.0834C246.832 27.6433 251.666 34.4055 254.966 41.9384C258.266 49.4713 259.96 57.6094 259.938 65.8334Z" fill="#58317F"/>
<path d="M293.271 65.8333C293.312 77.8399 290.892 89.7275 286.163 100.763C281.433 111.799 274.493 121.749 265.771 130C264.166 131.204 262.181 131.788 260.18 131.646C258.179 131.504 256.297 130.644 254.878 129.226C253.46 127.807 252.601 125.925 252.458 123.924C252.316 121.923 252.901 119.938 254.104 118.333C261.214 111.562 266.875 103.417 270.742 94.3925C274.61 85.3679 276.604 75.6518 276.604 65.8333C276.604 56.0149 274.61 46.2988 270.742 37.2742C266.875 28.2496 261.214 20.1047 254.104 13.3333C252.901 11.7286 252.316 9.74352 252.458 7.7426C252.601 5.74169 253.46 3.85922 254.878 2.44079C256.297 1.02236 258.179 0.163176 260.18 0.0209759C262.181 -0.121225 264.166 0.463104 265.771 1.66668C274.493 9.91758 281.433 19.8676 286.163 30.9034C290.892 41.9392 293.312 53.8268 293.271 65.8333Z" fill="#58317F"/>
<path d="M149.104 118.333C150.308 119.938 150.892 121.923 150.75 123.924C150.608 125.925 149.749 127.807 148.33 129.226C146.912 130.644 145.029 131.504 143.028 131.646C141.028 131.788 139.042 131.204 137.438 130C128.766 121.714 121.863 111.755 117.147 100.727C112.431 89.6981 110 77.8279 110 65.8333C110 53.8388 112.431 41.9686 117.147 30.94C121.863 19.9113 128.766 9.95306 137.438 1.66668C139.042 0.463104 141.028 -0.121225 143.028 0.0209759C145.029 0.163176 146.912 1.02236 148.33 2.44079C149.749 3.85922 150.608 5.74169 150.75 7.7426C150.892 9.74352 150.308 11.7286 149.104 13.3333C141.994 20.1047 136.334 28.2496 132.466 37.2742C128.599 46.2988 126.604 56.0149 126.604 65.8333C126.604 75.6518 128.599 85.3679 132.466 94.3925C136.334 103.417 141.994 111.562 149.104 118.333Z" fill="#58317F"/>
</svg>
